<mxfile host="Electron" agent="Mozilla/5.0 (Windows NT 10.0; Win64; x64) AppleWebKit/537.36 (KHTML, like Gecko) draw.io/26.0.16 Chrome/132.0.6834.196 Electron/34.2.0 Safari/537.36" version="26.0.16">
  <diagram name="Page-1" id="WASLpTwy2ZbQWI6ii88h">
    <mxGraphModel dx="2049" dy="1194" grid="1" gridSize="10" guides="1" tooltips="1" connect="1" arrows="1" fold="1" page="1" pageScale="1" pageWidth="850" pageHeight="1100" math="0" shadow="0">
      <root>
        <mxCell id="0" />
        <mxCell id="1" parent="0" />
        <mxCell id="7nAhwSSTOHI013ocTRrG-188" value="" style="rounded=0;whiteSpace=wrap;html=1;" parent="1" vertex="1">
          <mxGeometry x="40" y="40.97" width="720" height="1129.03" as="geometry" />
        </mxCell>
        <mxCell id="7nAhwSSTOHI013ocTRrG-128" value="" style="endArrow=none;html=1;rounded=0;" parent="1" edge="1">
          <mxGeometry width="50" height="50" relative="1" as="geometry">
            <mxPoint x="320" y="1170" as="sourcePoint" />
            <mxPoint x="320" y="40" as="targetPoint" />
          </mxGeometry>
        </mxCell>
        <mxCell id="7nAhwSSTOHI013ocTRrG-129" value="" style="endArrow=none;html=1;rounded=0;" parent="1" edge="1">
          <mxGeometry width="50" height="50" relative="1" as="geometry">
            <mxPoint x="40" y="80" as="sourcePoint" />
            <mxPoint x="760" y="80" as="targetPoint" />
            <Array as="points">
              <mxPoint x="390" y="80" />
            </Array>
          </mxGeometry>
        </mxCell>
        <mxCell id="7nAhwSSTOHI013ocTRrG-130" value="User" style="text;html=1;align=center;verticalAlign=middle;whiteSpace=wrap;rounded=0;fontSize=18;fontStyle=1" parent="1" vertex="1">
          <mxGeometry x="40" y="40.97" width="280" height="40" as="geometry" />
        </mxCell>
        <mxCell id="_p5EBCPVnYr-h8DB5MFF-2" value="" style="edgeStyle=orthogonalEdgeStyle;rounded=0;orthogonalLoop=1;jettySize=auto;html=1;" edge="1" parent="1" source="7nAhwSSTOHI013ocTRrG-132" target="_p5EBCPVnYr-h8DB5MFF-1">
          <mxGeometry relative="1" as="geometry" />
        </mxCell>
        <mxCell id="7nAhwSSTOHI013ocTRrG-132" value="" style="ellipse;whiteSpace=wrap;html=1;aspect=fixed;labelBackgroundColor=none;fillColor=#000000;" parent="1" vertex="1">
          <mxGeometry x="165" y="100.97" width="30" height="30" as="geometry" />
        </mxCell>
        <mxCell id="_p5EBCPVnYr-h8DB5MFF-8" style="edgeStyle=orthogonalEdgeStyle;rounded=0;orthogonalLoop=1;jettySize=auto;html=1;exitX=1;exitY=0.5;exitDx=0;exitDy=0;exitPerimeter=0;fillColor=#d5e8d4;strokeColor=#00FF08;" edge="1" parent="1" source="7nAhwSSTOHI013ocTRrG-135" target="_p5EBCPVnYr-h8DB5MFF-7">
          <mxGeometry relative="1" as="geometry" />
        </mxCell>
        <mxCell id="_p5EBCPVnYr-h8DB5MFF-21" value="Sudah" style="edgeLabel;html=1;align=center;verticalAlign=middle;resizable=0;points=[];" vertex="1" connectable="0" parent="_p5EBCPVnYr-h8DB5MFF-8">
          <mxGeometry x="-0.4791" y="3" relative="1" as="geometry">
            <mxPoint x="4" y="3" as="offset" />
          </mxGeometry>
        </mxCell>
        <mxCell id="_p5EBCPVnYr-h8DB5MFF-11" style="edgeStyle=orthogonalEdgeStyle;rounded=0;orthogonalLoop=1;jettySize=auto;html=1;entryX=0;entryY=0.5;entryDx=0;entryDy=0;fillColor=#f8cecc;strokeColor=#FF0000;" edge="1" parent="1" source="7nAhwSSTOHI013ocTRrG-135" target="_p5EBCPVnYr-h8DB5MFF-7">
          <mxGeometry relative="1" as="geometry">
            <Array as="points">
              <mxPoint x="180" y="430" />
              <mxPoint x="300" y="430" />
              <mxPoint x="300" y="350" />
            </Array>
          </mxGeometry>
        </mxCell>
        <mxCell id="_p5EBCPVnYr-h8DB5MFF-12" value="Belum" style="edgeLabel;html=1;align=center;verticalAlign=middle;resizable=0;points=[];" vertex="1" connectable="0" parent="_p5EBCPVnYr-h8DB5MFF-11">
          <mxGeometry x="-0.6029" relative="1" as="geometry">
            <mxPoint x="29" as="offset" />
          </mxGeometry>
        </mxCell>
        <mxCell id="7nAhwSSTOHI013ocTRrG-135" value="Sudah Mempunyai Akun?" style="strokeWidth=2;html=1;shape=mxgraph.flowchart.decision;whiteSpace=wrap;spacingTop=12;" parent="1" vertex="1">
          <mxGeometry x="120" y="290" width="120" height="120" as="geometry" />
        </mxCell>
        <mxCell id="7nAhwSSTOHI013ocTRrG-177" value="" style="ellipse;html=1;shape=endState;fillColor=#000000;strokeColor=#ff0000;" parent="1" vertex="1">
          <mxGeometry x="525" y="1120" width="30" height="30" as="geometry" />
        </mxCell>
        <mxCell id="7nAhwSSTOHI013ocTRrG-131" value="System" style="text;html=1;align=center;verticalAlign=middle;whiteSpace=wrap;rounded=0;fontSize=18;fontStyle=1" parent="1" vertex="1">
          <mxGeometry x="320" y="40.97" width="440" height="40" as="geometry" />
        </mxCell>
        <mxCell id="_p5EBCPVnYr-h8DB5MFF-3" value="" style="edgeStyle=orthogonalEdgeStyle;rounded=0;orthogonalLoop=1;jettySize=auto;html=1;" edge="1" parent="1" source="_p5EBCPVnYr-h8DB5MFF-1" target="7nAhwSSTOHI013ocTRrG-135">
          <mxGeometry relative="1" as="geometry" />
        </mxCell>
        <mxCell id="_p5EBCPVnYr-h8DB5MFF-1" value="Hastinulc Makeup Art" style="rounded=1;whiteSpace=wrap;html=1;strokeWidth=2;" vertex="1" parent="1">
          <mxGeometry x="120" y="180" width="120" height="60" as="geometry" />
        </mxCell>
        <mxCell id="_p5EBCPVnYr-h8DB5MFF-15" style="edgeStyle=orthogonalEdgeStyle;rounded=0;orthogonalLoop=1;jettySize=auto;html=1;entryX=0;entryY=0.5;entryDx=0;entryDy=0;" edge="1" parent="1" source="_p5EBCPVnYr-h8DB5MFF-4" target="_p5EBCPVnYr-h8DB5MFF-14">
          <mxGeometry relative="1" as="geometry">
            <Array as="points">
              <mxPoint x="180" y="940" />
            </Array>
          </mxGeometry>
        </mxCell>
        <mxCell id="_p5EBCPVnYr-h8DB5MFF-4" value="Login" style="rounded=1;whiteSpace=wrap;html=1;strokeWidth=2;" vertex="1" parent="1">
          <mxGeometry x="120" y="700.97" width="120" height="60" as="geometry" />
        </mxCell>
        <mxCell id="_p5EBCPVnYr-h8DB5MFF-9" style="edgeStyle=orthogonalEdgeStyle;rounded=0;orthogonalLoop=1;jettySize=auto;html=1;entryX=0.5;entryY=0;entryDx=0;entryDy=0;fillColor=#60a917;strokeColor=#00FF08;" edge="1" parent="1" source="_p5EBCPVnYr-h8DB5MFF-7" target="_p5EBCPVnYr-h8DB5MFF-4">
          <mxGeometry relative="1" as="geometry">
            <Array as="points">
              <mxPoint x="400" y="640" />
              <mxPoint x="180" y="640" />
            </Array>
          </mxGeometry>
        </mxCell>
        <mxCell id="_p5EBCPVnYr-h8DB5MFF-20" style="edgeStyle=orthogonalEdgeStyle;rounded=0;orthogonalLoop=1;jettySize=auto;html=1;entryX=1;entryY=0.5;entryDx=0;entryDy=0;fillColor=#f8cecc;strokeColor=#FF0000;" edge="1" parent="1" source="_p5EBCPVnYr-h8DB5MFF-7" target="_p5EBCPVnYr-h8DB5MFF-18">
          <mxGeometry relative="1" as="geometry">
            <Array as="points">
              <mxPoint x="400" y="490" />
            </Array>
          </mxGeometry>
        </mxCell>
        <mxCell id="_p5EBCPVnYr-h8DB5MFF-7" value="Menampilkan Formulir" style="rounded=1;whiteSpace=wrap;html=1;strokeWidth=2;" vertex="1" parent="1">
          <mxGeometry x="340" y="320" width="120" height="60" as="geometry" />
        </mxCell>
        <mxCell id="_p5EBCPVnYr-h8DB5MFF-31" value="" style="edgeStyle=orthogonalEdgeStyle;rounded=0;orthogonalLoop=1;jettySize=auto;html=1;" edge="1" parent="1" source="_p5EBCPVnYr-h8DB5MFF-14" target="_p5EBCPVnYr-h8DB5MFF-30">
          <mxGeometry relative="1" as="geometry" />
        </mxCell>
        <mxCell id="_p5EBCPVnYr-h8DB5MFF-14" value="Memvalidasi" style="rounded=1;whiteSpace=wrap;html=1;strokeWidth=2;" vertex="1" parent="1">
          <mxGeometry x="340" y="910" width="120" height="60" as="geometry" />
        </mxCell>
        <mxCell id="_p5EBCPVnYr-h8DB5MFF-18" value="Register" style="rounded=1;whiteSpace=wrap;html=1;strokeWidth=2;" vertex="1" parent="1">
          <mxGeometry x="120" y="460" width="120" height="60" as="geometry" />
        </mxCell>
        <mxCell id="_p5EBCPVnYr-h8DB5MFF-24" style="edgeStyle=orthogonalEdgeStyle;rounded=0;orthogonalLoop=1;jettySize=auto;html=1;entryX=1;entryY=0.5;entryDx=0;entryDy=0;strokeColor=#FF0000;" edge="1" parent="1" source="_p5EBCPVnYr-h8DB5MFF-22" target="_p5EBCPVnYr-h8DB5MFF-18">
          <mxGeometry relative="1" as="geometry">
            <Array as="points">
              <mxPoint x="540" y="490" />
            </Array>
          </mxGeometry>
        </mxCell>
        <mxCell id="_p5EBCPVnYr-h8DB5MFF-25" value="Sudah" style="edgeLabel;html=1;align=center;verticalAlign=middle;resizable=0;points=[];" vertex="1" connectable="0" parent="_p5EBCPVnYr-h8DB5MFF-24">
          <mxGeometry x="-0.3861" y="-1" relative="1" as="geometry">
            <mxPoint y="1" as="offset" />
          </mxGeometry>
        </mxCell>
        <mxCell id="_p5EBCPVnYr-h8DB5MFF-27" value="" style="edgeStyle=orthogonalEdgeStyle;rounded=0;orthogonalLoop=1;jettySize=auto;html=1;strokeColor=#00FF08;" edge="1" parent="1" source="_p5EBCPVnYr-h8DB5MFF-22" target="_p5EBCPVnYr-h8DB5MFF-26">
          <mxGeometry relative="1" as="geometry" />
        </mxCell>
        <mxCell id="_p5EBCPVnYr-h8DB5MFF-28" value="Belum" style="edgeLabel;html=1;align=center;verticalAlign=middle;resizable=0;points=[];" vertex="1" connectable="0" parent="_p5EBCPVnYr-h8DB5MFF-27">
          <mxGeometry x="-0.4309" relative="1" as="geometry">
            <mxPoint y="13" as="offset" />
          </mxGeometry>
        </mxCell>
        <mxCell id="_p5EBCPVnYr-h8DB5MFF-22" value="&lt;font&gt;Apakah Username Atau Email Sudah Dipakai?&lt;/font&gt;" style="strokeWidth=2;html=1;shape=mxgraph.flowchart.decision;whiteSpace=wrap;spacingTop=12;" vertex="1" parent="1">
          <mxGeometry x="480" y="520" width="120" height="120" as="geometry" />
        </mxCell>
        <mxCell id="_p5EBCPVnYr-h8DB5MFF-23" style="edgeStyle=orthogonalEdgeStyle;rounded=0;orthogonalLoop=1;jettySize=auto;html=1;exitX=0.5;exitY=1;exitDx=0;exitDy=0;entryX=0;entryY=0.5;entryDx=0;entryDy=0;entryPerimeter=0;" edge="1" parent="1" source="_p5EBCPVnYr-h8DB5MFF-18" target="_p5EBCPVnYr-h8DB5MFF-22">
          <mxGeometry relative="1" as="geometry" />
        </mxCell>
        <mxCell id="_p5EBCPVnYr-h8DB5MFF-29" style="edgeStyle=orthogonalEdgeStyle;rounded=0;orthogonalLoop=1;jettySize=auto;html=1;exitX=1;exitY=0.5;exitDx=0;exitDy=0;entryX=1;entryY=0.5;entryDx=0;entryDy=0;strokeColor=#00FF08;" edge="1" parent="1" source="_p5EBCPVnYr-h8DB5MFF-26" target="_p5EBCPVnYr-h8DB5MFF-7">
          <mxGeometry relative="1" as="geometry">
            <Array as="points">
              <mxPoint x="660" y="731" />
              <mxPoint x="660" y="350" />
            </Array>
          </mxGeometry>
        </mxCell>
        <mxCell id="_p5EBCPVnYr-h8DB5MFF-26" value="Menyimpan Data Di Database" style="rounded=1;whiteSpace=wrap;html=1;strokeWidth=2;" vertex="1" parent="1">
          <mxGeometry x="480" y="700.97" width="120" height="60" as="geometry" />
        </mxCell>
        <mxCell id="_p5EBCPVnYr-h8DB5MFF-32" style="edgeStyle=orthogonalEdgeStyle;rounded=0;orthogonalLoop=1;jettySize=auto;html=1;exitX=0.5;exitY=0;exitDx=0;exitDy=0;exitPerimeter=0;entryX=1;entryY=0.5;entryDx=0;entryDy=0;" edge="1" parent="1" source="_p5EBCPVnYr-h8DB5MFF-30" target="_p5EBCPVnYr-h8DB5MFF-4">
          <mxGeometry relative="1" as="geometry">
            <Array as="points">
              <mxPoint x="400" y="731" />
            </Array>
          </mxGeometry>
        </mxCell>
        <mxCell id="_p5EBCPVnYr-h8DB5MFF-33" value="Tidak" style="edgeLabel;html=1;align=center;verticalAlign=middle;resizable=0;points=[];" vertex="1" connectable="0" parent="_p5EBCPVnYr-h8DB5MFF-32">
          <mxGeometry x="-0.2443" relative="1" as="geometry">
            <mxPoint as="offset" />
          </mxGeometry>
        </mxCell>
        <mxCell id="_p5EBCPVnYr-h8DB5MFF-35" style="edgeStyle=orthogonalEdgeStyle;rounded=0;orthogonalLoop=1;jettySize=auto;html=1;entryX=0.5;entryY=0;entryDx=0;entryDy=0;" edge="1" parent="1" source="_p5EBCPVnYr-h8DB5MFF-30" target="_p5EBCPVnYr-h8DB5MFF-37">
          <mxGeometry relative="1" as="geometry" />
        </mxCell>
        <mxCell id="_p5EBCPVnYr-h8DB5MFF-36" value="Ya" style="edgeLabel;html=1;align=center;verticalAlign=middle;resizable=0;points=[];" vertex="1" connectable="0" parent="_p5EBCPVnYr-h8DB5MFF-35">
          <mxGeometry x="-0.6511" relative="1" as="geometry">
            <mxPoint x="10" as="offset" />
          </mxGeometry>
        </mxCell>
        <mxCell id="_p5EBCPVnYr-h8DB5MFF-30" value="&lt;font&gt;Valid?&lt;/font&gt;" style="strokeWidth=2;html=1;shape=mxgraph.flowchart.decision;whiteSpace=wrap;spacingTop=6;spacing=2;" vertex="1" parent="1">
          <mxGeometry x="340" y="760.97" width="120" height="120" as="geometry" />
        </mxCell>
        <mxCell id="_p5EBCPVnYr-h8DB5MFF-39" value="" style="edgeStyle=orthogonalEdgeStyle;rounded=0;orthogonalLoop=1;jettySize=auto;html=1;" edge="1" parent="1" source="_p5EBCPVnYr-h8DB5MFF-34" target="7nAhwSSTOHI013ocTRrG-177">
          <mxGeometry relative="1" as="geometry" />
        </mxCell>
        <mxCell id="_p5EBCPVnYr-h8DB5MFF-34" value="&lt;div&gt;(Mendapatkan Akses)&lt;/div&gt;Hastinulc Makeup Art" style="rounded=1;whiteSpace=wrap;html=1;strokeWidth=2;" vertex="1" parent="1">
          <mxGeometry x="480" y="1020" width="120" height="60" as="geometry" />
        </mxCell>
        <mxCell id="_p5EBCPVnYr-h8DB5MFF-38" value="" style="edgeStyle=orthogonalEdgeStyle;rounded=0;orthogonalLoop=1;jettySize=auto;html=1;" edge="1" parent="1" source="_p5EBCPVnYr-h8DB5MFF-37" target="_p5EBCPVnYr-h8DB5MFF-34">
          <mxGeometry relative="1" as="geometry" />
        </mxCell>
        <mxCell id="_p5EBCPVnYr-h8DB5MFF-37" value="Menyimpan Data Di Session" style="rounded=1;whiteSpace=wrap;html=1;strokeWidth=2;" vertex="1" parent="1">
          <mxGeometry x="480" y="910" width="120" height="60" as="geometry" />
        </mxCell>
      </root>
    </mxGraphModel>
  </diagram>
</mxfile>
